<svg xmlns="http://www.w3.org/2000/svg" viewBox="0 0 64 64"><g data-name="Chat Communication"><path fill="#acabb1" d="M20 3H44a4 4 0 0 1 4 4v4a0 0 0 0 1 0 0H16a0 0 0 0 1 0 0V7A4 4 0 0 1 20 3zM16 51H48a0 0 0 0 1 0 0v6a4 4 0 0 1-4 4H20a4 4 0 0 1-4-4V51A0 0 0 0 1 16 51z"/><rect width="32" height="40" x="16" y="11" fill="#ffeb99"/><path fill="#ffe477" d="M48,13.52V51H16V47.73A74.824,74.824,0,0,0,48,13.52Z"/><rect width="2" height="2" x="31" y="55" fill="#57565c"/><polygon fill="#00ddc2" points="21 25 20 25 11 25 11 48.94 17 43 43 43 43 41 43 40 43 25 21 25"/><rect width="2" height="2" x="24" y="6" fill="#57565c"/><rect width="2" height="2" x="28" y="6" fill="#57565c"/><path fill="#ffd422" d="M21,16h3V14H20a1,1,0,0,0-1,1v4h2Z"/><polygon fill="#ffc477" points="21 22 21 25 21 40 43 40 47 40 53 45.94 53 22 21 22"/><rect width="2" height="2" x="24" y="26" fill="#ff9478"/><rect width="22" height="2" x="28" y="26" fill="#ff9478"/><rect width="26" height="2" x="24" y="30" fill="#ff9478"/><rect width="26" height="2" x="24" y="34" fill="#ff9478"/><rect width="2" height="2" x="14" y="29" fill="#ffde55"/><rect width="5" height="2" x="14" y="33" fill="#ffde55"/><rect width="5" height="2" x="14" y="37" fill="#ffde55"/></g></svg>