<svg xmlns="http://www.w3.org/2000/svg" enable-background="new 0 0 50 50" viewBox="0 0 50 50"><path fill="#676767" d="M48.0171,1.0004H1.9848c-0.5434,0-0.9838,0.4405-0.9838,0.9839v8.5887h47.9999V1.9843
		C49.0009,1.4409,48.5604,1.0004,48.0171,1.0004z"/><path fill="#EEEAE8" d="M48.9991,10.5695v37.01c0,0.78-0.64,1.42-1.42,1.42h-45.15c-0.79,0-1.43-0.64-1.43-1.42v-37.01H48.9991z"/><circle cx="33.806" cy="5.787" r="1.782" fill="#FDC665"/><circle cx="39.289" cy="5.787" r="1.782" fill="#579FD6"/><circle cx="44.773" cy="5.787" r="1.782" fill="#F06562"/><path fill="#F06562" d="M34.6454,32.5941c-0.2087,0.7173-0.4891,1.3955-0.8412,2.028l1.6041,2.0737l-3.5017,3.5018l-2.0671-1.6042
		c-0.639,0.3522-1.3172,0.6326-2.0345,0.8347l-0.3326,2.6019h-4.9429l-0.3325-2.5953c-0.7173-0.2087-1.3955-0.4891-2.028-0.8412
		l-2.0737,1.6042l-3.5017-3.5018l1.6042-2.0737c-0.3522-0.6326-0.6326-1.3107-0.8477-2.028l-2.5954-0.3326v-4.9494l2.5954-0.3326
		c0.2152-0.7108,0.4956-1.389,0.8477-2.028l-1.6042-2.0737l3.5017-3.5017l2.0737,1.6041c0.6326-0.3521,1.3107-0.6325,2.028-0.8412
		l0.3325-2.5953h4.9429l0.3326,2.5953c0.7173,0.2087,1.3955,0.4891,2.0345,0.8412l2.0671-1.6041l3.5017,3.5017l-1.6041,2.0802
		c0.3521,0.6325,0.6325,1.3107,0.8412,2.0215l2.6019,0.3326v4.9494L34.6454,32.5941z"/><circle cx="25.001" cy="29.787" r="6.465" fill="#FFF"/></svg>