<svg xmlns="http://www.w3.org/2000/svg" enable-background="new 0 0 93 93" viewBox="0 0 93 93"><path fill="#FACBD6" d="M11.40305,68.1191h6.11962c1.41233,0,2.56325,1.15087,2.56325,2.61524
				c0,1.41233-1.15092,2.56287-2.56325,2.56287h-5.00144c-1.36005,0-2.56291,1.09855-2.56291,2.56292
				c0,1.41238,1.15083,2.5632,2.56291,2.5632h6.36124c1.11731,2.25193,2.52601,4.33092,4.16222,6.20531h43.57815
				c1.63505-1.8746,3.04293-3.95362,4.16029-6.20531h3.39899c1.46432,0,2.56282-1.15083,2.56282-2.5632
				c0-1.41199-1.15083-2.56292-2.56282-2.56292h-6.59054c-1.41233,0-2.56291-1.15054-2.56291-2.56287
				c0-1.46437,1.15058-2.61524,2.56291-2.61524h9.93812c1.46437,0,2.61524-1.15058,2.61524-2.56291
				c0-1.41238-1.15087-2.56292-2.61524-2.56292h-6.06758c-1.46437,0-2.61524-1.15088-2.61524-2.56287
				c0-1.46476,1.15087-2.6153,2.61524-2.6153h6.07875c1.41233,0,2.61524-1.09854,2.61524-2.56286
				c0-1.41233-1.15058-2.56326-2.61524-2.56326h-6.71391c-4.74211-9.55986-14.58833-16.13806-25.98327-16.13806
				c-11.39658,0-21.25194,6.57618-25.99361,16.13806h-4.04702c-1.46471,0-2.61524,1.20325-2.61524,2.56326
				c0,1.41199,1.15054,2.56286,2.61524,2.56286h6.59049c1.41199,0,2.56291,1.15054,2.56291,2.6153
				c0,1.41199-1.15092,2.56287-2.56291,2.56287h-9.99049c-1.41199,0-2.56282,1.15053-2.56282,2.56292
				C8.84023,66.96852,9.99106,68.1191,11.40305,68.1191z"/><path fill="#FFF" d="M64.47642,42.85841v27.987c0,1.6592-1.33947,2.9986-2.99861,2.9986H17.49824
			c-1.65938,0-2.99861-1.3394-2.99861-2.9986v-27.987c0-1.64926,1.33922-2.99861,2.99861-2.99861h43.97957
			C63.13695,39.8598,64.47642,41.20915,64.47642,42.85841z"/><path fill="#45B9EA" d="M17.98739,71.02293c-0.27392,0-0.48866-0.21474-0.48866-0.48866V43.16919
			c0-0.26962,0.21952-0.48866,0.48866-0.48866h43.00225c0.26915,0,0.48866,0.21904,0.48866,0.48866v27.36507
			c0,0.27392-0.21474,0.48866-0.48866,0.48866H17.98739z"/><polygon fill="#EAF3FB" points="51.712 82.13 51.712 84.629 27.273 84.629 27.273 82.13 33.76 80.631 45.215 80.631"/><path fill="#FFF" d="M55.47688,54.73057v27.89934c0,1.10406,0.89501,1.99907,1.99907,1.99907h19.02461
			c1.10406,0,1.99908-0.89501,1.99908-1.99907V54.73057c0-1.10406-0.89502-1.99907-1.99908-1.99907H57.47595
			C56.37189,52.7315,55.47688,53.62651,55.47688,54.73057z"/><rect width="23.023" height="21.77" x="55.477" y="57.307" fill="#A8BAE0"/><path fill="#D1D2D2" d="M69.58195,54.51938h-5.1874c-0.27617,0-0.50006,0.22385-0.50006,0.49998
				c0,0.27617,0.22389,0.50002,0.50006,0.50002h5.1874c0.27617,0,0.50006-0.22385,0.50006-0.50002
				C70.08202,54.74324,69.85812,54.51938,69.58195,54.51938z"/><circle cx="66.988" cy="81.853" r="1.5" fill="#D1D2D2"/><path fill="#FFF" d="M58.55588 61.16309v2.82343c0 .27614.22386.5.5.5h15.86474c.27615 0 .5-.22385.5-.5v-2.82343c0-.27614-.22385-.5-.5-.5H59.05588C58.77974 60.66309 58.55588 60.88695 58.55588 61.16309zM58.55588 68.0548v7.1667c0 .27615.22386.5.5.5h5.93239c.27615 0 .5-.22385.5-.5v-7.1667c0-.27615-.22385-.5-.5-.5h-5.93239C58.77974 67.5548 58.55588 67.77866 58.55588 68.0548zM68.48824 68.0548v7.1667c0 .27615.22385.5.5.5h5.93239c.27615 0 .5-.22385.5-.5v-7.1667c0-.27615-.22385-.5-.5-.5h-5.93239C68.71209 67.5548 68.48824 67.77866 68.48824 68.0548zM34.93813 47.04182v19.6198c0 .54124-.43488.9665-.9665.9665H21.90462c-.53138 0-.96649-.42526-.96649-.9665v-19.6198c0-.53156.43511-.9665.96649-.9665h12.06701C34.50325 46.07533 34.93813 46.51027 34.93813 47.04182z"/><rect width="14.091" height="1" x="38.378" y="47.25" fill="#FFF"/><rect width="8.091" height="1" x="44.378" y="53.318" fill="#FFF"/><rect width="14.091" height="1" x="38.378" y="59.386" fill="#FFF"/><rect width="8.091" height="1" x="44.378" y="65.454" fill="#FFF"/><path fill="#EF385A" d="M67.80469,20.10152c-1.30371,0-2.36523-1.06104-2.36523-2.36523c0-0.13818-0.1123-0.25-0.25-0.25
			s-0.25,0.11182-0.25,0.25c0,1.3042-1.06152,2.36523-2.36523,2.36523c-0.1377,0-0.25,0.11182-0.25,0.25s0.1123,0.25,0.25,0.25
			c1.30371,0,2.36523,1.06104,2.36523,2.36475c0,0.13818,0.1123,0.25,0.25,0.25s0.25-0.11182,0.25-0.25
			c0-1.30371,1.06152-2.36475,2.36523-2.36475c0.1377,0,0.25-0.11182,0.25-0.25S67.94238,20.10152,67.80469,20.10152z
			 M65.18945,21.80715c-0.28833-0.6474-0.80811-1.16736-1.45581-1.45563c0.64771-0.28833,1.16748-0.80829,1.45581-1.45587
			c0.28833,0.64758,0.80835,1.16754,1.45581,1.45587C65.9978,20.63979,65.47778,21.15975,65.18945,21.80715z"/><path fill="#2F2666" d="M28.10254,10.48629c-1.30371,0-2.36426-1.06104-2.36426-2.36523c0-0.13818-0.1123-0.25-0.25-0.25
			s-0.25,0.11182-0.25,0.25c0,1.3042-1.06152,2.36523-2.36523,2.36523c-0.1377,0-0.25,0.11182-0.25,0.25s0.1123,0.25,0.25,0.25
			c1.30371,0,2.36523,1.06104,2.36523,2.36523c0,0.13818,0.1123,0.25,0.25,0.25s0.25-0.11182,0.25-0.25
			c0-1.3042,1.06055-2.36523,2.36426-2.36523c0.1377,0,0.25-0.11182,0.25-0.25S28.24023,10.48629,28.10254,10.48629z
			 M25.48828,12.19204c-0.28833-0.64752-0.80835-1.16742-1.45581-1.45575c0.64746-0.28833,1.16748-0.80829,1.45581-1.45581
			c0.28833,0.64752,0.80811,1.16748,1.45557,1.45581C26.29639,11.02462,25.77661,11.54451,25.48828,12.19204z"/><path fill="#4AB74A" d="M17.20313,30.75582c-1.30371,0-2.36523-1.06104-2.36523-2.36523c0-0.13818-0.1123-0.25-0.25-0.25
			s-0.25,0.11182-0.25,0.25c0,1.3042-1.06152,2.36523-2.36523,2.36523c-0.1377,0-0.25,0.11182-0.25,0.25s0.1123,0.25,0.25,0.25
			c1.30371,0,2.36523,1.06104,2.36523,2.36523c0,0.13818,0.1123,0.25,0.25,0.25s0.25-0.11182,0.25-0.25
			c0-1.3042,1.06152-2.36523,2.36523-2.36523c0.1377,0,0.25-0.11182,0.25-0.25S17.34082,30.75582,17.20313,30.75582z
			 M14.58789,32.46163c-0.28833-0.64758-0.80811-1.16748-1.45581-1.45581c0.64771-0.28833,1.16748-0.80829,1.45581-1.45587
			c0.28833,0.64758,0.80835,1.16754,1.45581,1.45587C15.39624,31.29415,14.87622,31.81404,14.58789,32.46163z"/><path fill="#45B9EA" d="M75.02637,42.4482c-1.30371,0-2.36523-1.06104-2.36523-2.36523c0-0.13818-0.1123-0.25-0.25-0.25
			s-0.25,0.11182-0.25,0.25c0,1.3042-1.06055,2.36523-2.36426,2.36523c-0.1377,0-0.25,0.11182-0.25,0.25s0.1123,0.25,0.25,0.25
			c1.30371,0,2.36426,1.06104,2.36426,2.36523c0,0.13818,0.1123,0.25,0.25,0.25s0.25-0.11182,0.25-0.25
			c0-1.3042,1.06152-2.36523,2.36523-2.36523c0.1377,0,0.25-0.11182,0.25-0.25S75.16406,42.4482,75.02637,42.4482z
			 M72.41113,44.15401c-0.28833-0.64758-0.80811-1.16748-1.45557-1.45581c0.64746-0.28833,1.16724-0.80829,1.45557-1.45587
			c0.28833,0.64758,0.80835,1.16754,1.45581,1.45587C73.21948,42.98653,72.69946,43.50643,72.41113,44.15401z"/><g><path fill="#EF385A" d="M49.94709,31.78659v0.79439c0,1.69053-1.36451,3.05522-3.05523,3.05522H32.08418
				c-1.69047,0-3.05522-1.36469-3.05522-3.05522v-0.79439c0-3.39125,2.52563-6.18174,5.80512-6.58907l4.65394,3.63572
				l4.65419-3.63572C47.42146,25.60485,49.94709,28.40547,49.94709,31.78659z"/><path fill="#FED208" d="M39.38026,11.65213c-3.30579,0-5.98568,0.96594-5.98568,5.00334
						c0,4.03738,2.67989,8.35853,5.98568,8.35853c3.30581,0,5.98567-4.32116,5.98567-8.35853
						C45.36593,12.61807,42.68607,11.65213,39.38026,11.65213z"/><path fill="#010101" d="M41.45718 13.21387c0 0-1.23432 1.63107-5.37812 1.19024 0 0-2.60089 2.51273-2.3364 4.84913 0 0-2.70396-5.05286.89608-8.70896 2.40354-2.44096 6.29242-2.8116 9.09422-.84052 2.04435 1.43821 3.56521 4.06114 1.47127 8.80006C45.20423 18.50382 42.03025 15.55027 41.45718 13.21387zM10.27441 84.12887H1.5c-.27637 0-.5.22363-.5.5s.22363.5.5.5h8.77441c.27637 0 .5-.22363.5-.5S10.55078 84.12887 10.27441 84.12887zM91.5 84.12887h-8.77441c-.27637 0-.5.22363-.5.5s.22363.5.5.5H91.5c.27637 0 .5-.22363.5-.5S91.77637 84.12887 91.5 84.12887zM79.15234 84.12887h-.6499c.31006-.41992.5-.93994.5-1.49988V79.579c0-7.42142 0-13.44404 0-24.84998 0-1.38-1.11987-2.5-2.5-2.5H64.97656v-9.37067c0-1.9292-1.56934-3.49854-3.49902-3.49854H17.49805C15.56934 39.35982 14 40.92916 14 42.85836v27.98682c0 1.9292 1.56934 3.49902 3.49805 3.49902h15.7644v5.88483L27.1626 81.639c-.22998.06-.39014.26001-.39014.48999v1.99988h-12.9248c-.27637 0-.5.22363-.5.5s.22363.5.5.5c40.21185.00006 42.1507.00013 65.30469 0 .27637 0 .5-.22363.5-.5S79.42871 84.12887 79.15234 84.12887zM78.00244 82.62899c0 .82959-.6792 1.49915-1.49878 1.49988H57.47119c-.81934-.00073-1.49878-.67029-1.49878-1.49988V79.579h22.03003V82.62899zM55.97241 57.80898h22.03003V78.579H55.97241V57.80898zM54.97241 54.72902c0 4.00741 0 11.7958 0 15.79548l-36.97339.00964L17.9873 43.18062l42.99121-.01123.00415 9.05963h-3.51025C56.10254 52.22902 54.97241 53.34902 54.97241 54.72902zM78.00244 54.72902v2.07996H55.97241v-2.07996c0-.83002.68018-1.5 1.5-1.5h19.03003C77.32251 53.22902 78.00244 53.89901 78.00244 54.72902zM15 70.84518V42.85836c0-1.37793 1.12109-2.49854 2.49805-2.49854h43.97949c1.37793 0 2.49902 1.12061 2.49902 2.49854v9.37067h-1.99805v-9.05963c0-.54541-.44336-.98877-.98926-.98877H17.9873c-.54492 0-.98828.44336-.98828.98877v27.36475c0 .55469.43457.98877.98828.98877h36.98511v1.82129H17.49805C16.12109 73.3442 15 72.22311 15 70.84518zM54.97241 74.3442v5.2348 3.04999c0 .55994.19019 1.07996.51001 1.49988H52.2124v-1.99988c0-.22998-.15991-.42999-.38989-.48999l-6.1001-1.40997V74.3442H54.97241zM44.72241 80.12899H34.26245v-5.77997h10.45996V80.12899zM27.77246 82.52901l6.04004-1.40002h11.3501l6.0498 1.40002v1.59985H27.77246V82.52901zM32.08252 35.889h14.81006c1.81982 0 3.2998-1.48999 3.2998-3.31v-.78998c0-3.47003-2.58984-6.41003-6.02002-6.84003l-.09985-.01001L39.49243 28.519l-4.58984-3.58002-.1001.01001c-3.42993.42999-6.02002 3.37-6.02002 6.84003V32.579C28.78247 34.39901 30.26245 35.889 32.08252 35.889zM29.28247 31.78902c0-3.19 2.3501-5.89001 5.47998-6.33002l4.72998 3.69 4.71997-3.69c3.14014.44 5.47998 3.14001 5.47998 6.33002V32.579c0 1.54999-1.25 2.81-2.7998 2.81H32.08252c-1.55005 0-2.80005-1.26001-2.80005-2.81V31.78902z"/><path fill="#010101" d="M33.52246,19.36898c0.8501,3.14001,3.08008,5.90002,5.86011,5.90002
								c2.98999,0,5.33984-3.20001,6.02002-6.62c0.01001-0.01001,0.01978-0.02002,0.03003-0.03998
								c2.22998-5.05005,0.38989-7.74005-1.56006-9.11005c-1.20996-0.85999-2.66016-1.31-4.16992-1.31
								c-1.97021,0-3.88013,0.79004-5.24023,2.17999c-3.5498,3.60004-1.15991,8.56006-0.94995,8.97003
								C33.51245,19.35903,33.52246,19.36898,33.52246,19.36898z M39.38257,24.769c-2.52002,0-4.61011-2.65997-5.39014-5.60999
								c-0.16992-1.94,1.76001-4.06,2.17993-4.48999c0.44019,0.03998,0.86011,0.06,1.27002,0.06
								c2.22021,0,3.38013-0.65002,3.89014-1.04999c0.71997,2.06,3.03003,4.35998,3.58008,4.88995
								C44.25244,21.74898,42.07251,24.769,39.38257,24.769z M34.8125,10.71901c1.28003-1.28998,3.06006-2.03003,4.89014-2.03003
								c1.40991,0,2.75,0.42004,3.88989,1.22003c2.17993,1.53998,2.86011,3.79999,2.02002,6.73999v0.01001
								c-0.13013,0.45001-0.30005,0.91998-0.5,1.40997l-0.1001-0.09998c-0.82983-0.84003-2.87988-3.03998-3.30981-4.81
								c-0.03027-0.10004-0.1001-0.16998-0.19019-0.19c-0.09985-0.02002-0.19995,0.02002-0.25,0.08997
								c-0.01001,0.01001-0.94995,1.17004-3.82007,1.17004c-0.42993,0-0.86987-0.02002-1.33984-0.07001
								c-0.07007-0.01001-0.14014,0.01001-0.19995,0.07001c-0.08008,0.07001-1.62012,1.58997-2.19995,3.38
								c-0.06006,0.17999-0.11011,0.35999-0.15015,0.53998c-0.1499-0.42999-0.31006-0.98999-0.40991-1.62
								C32.86255,14.81899,32.99243,12.56899,34.8125,10.71901z"/><g><circle cx="37.12" cy="18.127" r=".882" fill="#010101"/><circle cx="41.64" cy="18.127" r=".882" fill="#010101"/></g><g><path fill="#010101" d="M39.37988,22.67037c-0.50684,0-1.01465-0.19287-1.40039-0.5791
							c-0.09766-0.09766-0.09766-0.25586,0-0.35352s0.25586-0.09766,0.35352,0c0.57813,0.57715,1.51563,0.57715,2.09375,0
							c0.09766-0.09766,0.25586-0.09766,0.35352,0s0.09766,0.25586,0,0.35352C40.39453,22.4775,39.88672,22.67037,39.37988,22.67037
							z"/></g></g></svg>